<?xml version="1.0" encoding="UTF-8" standalone="no"?>
<!-- Created with Inkscape (http://www.inkscape.org/) -->

<svg version="1.1" id="svg1" width="524.52826" height="340.77066" viewBox="0 0 524.52826 340.77066" xmlns="http://www.w3.org/2000/svg" xmlns:svg="http://www.w3.org/2000/svg">
<defs id="defs1" />
<g id="g1" transform="translate(-2.0217602e-4,-0.00267185)">
<g id="group-R5">
<path id="path2" d="m 357.156,1824.29 2729.464,731.49 c 43.11,-161.01 210.45,-257.35 371.45,-214.25 v -1.26 l 101.42,27.88 c 30.43,7.61 62.12,-10.14 70.99,-41.83 v 0 c 7.61,-30.43 -10.14,-62.12 -41.83,-71 l -100.15,-26.62 29.16,-112.83 101.42,26.62 c 31.69,8.88 63.39,-10.14 70.99,-40.57 v 0 c 8.87,-31.69 -10.15,-63.38 -40.57,-72.26 l -101.42,-26.62 30.43,-112.83 101.41,26.62 c 30.43,8.88 63.39,-10.14 71,-40.56 v 0 c 8.87,-31.7 -10.14,-63.39 -40.57,-71 l -101.42,-27.89 30.43,-112.83 100.15,27.89 c 31.7,7.61 63.39,-10.14 72.26,-41.83 v 0 c 7.61,-30.43 -10.14,-63.39 -41.83,-71 l -101.42,-26.62 30.42,-112.83 101.43,26.62 c 30.42,8.88 63.38,-10.14 70.99,-40.56 v 0 c 8.87,-31.7 -10.15,-63.39 -40.57,-72.27 l -101.42,-26.62 30.42,-112.83 101.42,26.62 c 30.43,8.88 62.12,-10.14 71,-40.56 v 0 c 7.61,-31.7 -10.14,-63.39 -41.84,-72.27 l -114.09,-30.42 C 3622.88,1049.7 3532.87,887.422 3574.7,730.219 L 846.508,0 C 804.672,155.93 644.938,252.281 487.738,216.781 L 374.906,186.359 C 344.48,178.75 311.52,196.5 303.91,228.191 v 0 c -8.875,30.43 10.145,63.391 40.57,71 L 444.629,325.809 414.207,438.641 314.055,412.02 c -30.426,-7.61 -62.121,10.14 -70.996,41.832 v 0 c -7.606,30.429 10.144,62.117 41.836,71 l 100.156,26.617 -30.43,112.832 -100.152,-26.629 c -31.692,-8.871 -63.387,10.148 -72.262,40.566 v 0 c -7.605,31.703 11.41,63.391 41.836,72.274 L 324.195,777.129 293.77,889.961 193.617,862.07 c -30.422,-7.609 -63.387,11.399 -70.996,41.828 v 0 c -8.875,30.43 10.145,63.391 40.574,71 l 100.149,26.622 -29.16,112.83 -100.149,-26.62 c -31.695,-7.61 -63.3905,10.14 -72.2655,41.83 v 0 c -7.6015,30.43 10.1446,62.12 41.8395,71 l 100.153,26.62 -30.43,112.83 -100.1523,-26.62 c -30.4219,-8.88 -63.38673,10.13 -70.98829,40.56 v 0 c -8.875,31.69 10.13669,63.39 40.56639,72.27 l 100.1482,26.62 v 0 c 161.004,43.1 257.356,210.44 214.25,371.45 v 0" style="fill:#bd8d1b;fill-opacity:1;fill-rule:evenodd;stroke:none" transform="matrix(0.13333333,0,0,-0.13333333,0,340.77333)" />
<path id="path3" d="m 553.66,2222.36 h 2825.81 c 0,-167.34 135.65,-302.99 303,-302.99 v 0 h 103.95 c 32.96,0 58.32,-26.62 58.32,-58.32 v 0 c 0,-32.96 -25.36,-58.32 -58.32,-58.32 H 3682.47 V 1686.1 h 103.95 c 32.96,0 58.32,-26.62 58.32,-58.31 v 0 c 0,-32.97 -25.36,-58.32 -58.32,-58.32 h -103.95 v -116.63 h 103.95 c 32.96,0 58.32,-26.62 58.32,-58.32 v 0 c 0,-32.96 -25.36,-58.32 -58.32,-58.32 h -103.95 v -116.63 h 103.95 c 32.96,0 58.32,-26.62 58.32,-58.31 v 0 c 0,-32.97 -25.36,-58.32 -58.32,-58.32 H 3682.47 V 986.301 h 103.95 c 32.96,0 58.32,-26.621 58.32,-58.313 v 0 c 0,-32.957 -25.36,-58.316 -58.32,-58.316 H 3682.47 V 753.039 h 103.95 c 32.96,0 58.32,-26.617 58.32,-58.32 v 0 c 0,-32.957 -25.36,-58.309 -58.32,-58.309 h -117.9 c -161.01,-7.609 -289.05,-140.719 -289.05,-303 H 553.66 c 0,162.281 -129.312,295.391 -289.047,303 H 146.711 c -31.695,0 -58.3165,25.352 -58.3165,58.309 v 0 c 0,31.703 26.6215,58.32 58.3165,58.32 H 250.668 V 869.672 H 146.711 c -31.695,0 -58.3165,25.359 -58.3165,58.316 v 0 c 0,31.692 26.6215,58.313 58.3165,58.313 H 250.668 V 1102.94 H 146.711 c -31.695,0 -58.3165,25.35 -58.3165,58.32 v 0 c 0,31.69 26.6215,58.31 58.3165,58.31 H 250.668 V 1336.2 H 146.711 c -31.695,0 -58.3165,25.36 -58.3165,58.32 v 0 c 0,31.7 26.6215,58.32 58.3165,58.32 h 103.957 v 116.63 H 146.711 c -31.695,0 -58.3165,25.35 -58.3165,58.32 v 0 c 0,31.69 26.6215,58.31 58.3165,58.31 h 103.957 v 116.63 H 146.711 c -31.695,0 -58.3165,25.36 -58.3165,58.32 v 0 c 0,31.7 26.6215,58.32 58.3165,58.32 h 103.957 v 0 c 166.074,0 302.992,135.65 302.992,302.99 v 0" style="fill:#f8c608;fill-opacity:1;fill-rule:evenodd;stroke:none" transform="matrix(0.13333333,0,0,-0.13333333,0,340.77333)" />
<path id="path4" d="M 751.426,1959.94 C 698.184,1858.52 614.508,1774.85 513.09,1721.6 V 834.172 C 614.508,779.66 698.184,697.262 751.426,594.57 H 3181.7 c 53.25,102.692 136.92,185.09 238.34,239.602 V 1721.6 c -101.42,53.25 -185.09,136.92 -238.34,238.34 z m -87.473,131.84 C 622.117,1957.4 515.625,1850.91 381.246,1807.81 V 746.699 C 515.625,704.859 622.117,598.371 663.953,463.988 H 3267.91 c 43.1,134.383 149.59,240.871 282.71,282.711 V 1807.81 c -133.12,43.1 -239.61,149.59 -282.71,283.97 H 663.953" style="fill:#bd8d1b;fill-opacity:1;fill-rule:evenodd;stroke:none" transform="matrix(0.13333333,0,0,-0.13333333,0,340.77333)" />
<path id="path5" d="m 1253.46,1451.57 h 79.87 v -417.09 h 76.06 v 417.09 h 79.87 v 69.73 h -235.8 z m 268.76,-417.09 h 77.33 v 486.82 h -77.33 z m 281.44,181.29 v -69.73 c 0,-34.22 -15.22,-46.9 -39.3,-46.9 -24.09,0 -39.3,12.68 -39.3,46.9 v 262.43 c 0,35.49 15.21,48.17 39.3,48.17 24.08,0 39.3,-12.68 39.3,-48.17 v -51.98 h 72.26 v 48.17 c 0,77.34 -39.3,121.71 -114.1,121.71 -74.8,0 -114.09,-44.37 -114.09,-121.71 v -253.55 c 0,-77.33 39.29,-121.7 114.09,-121.7 74.8,0 114.1,44.37 114.1,121.7 v 64.66 z m 292.85,-181.29 h 78.6 l -106.49,270.03 106.49,216.79 h -76.07 l -100.15,-212.99 v 212.99 h -76.06 v -486.82 h 76.06 v 149.59 l 24.09,44.37 z m 190.16,417.09 h 131.85 v 69.73 h -207.91 v -486.82 h 207.91 v 69.72 h -131.85 v 141.99 h 105.23 v 69.73 h -105.23 z m 157.2,0 h 79.87 v -417.09 h 76.07 v 417.09 h 79.86 v 69.73 h -235.8 v -69.73" style="fill:#bd8d1b;fill-opacity:1;fill-rule:nonzero;stroke:none" transform="matrix(0.13333333,0,0,-0.13333333,0,340.77333)" />
<path id="path6" d="m 1135.55,914.039 27.9,-86.199 h 90.01 l -73.54,-53.25 27.9,-84.942 -72.27,53.25 -73.53,-53.25 29.16,84.942 -73.53,53.25 h 90.02 z m 1662.02,0 27.89,-86.199 h 90.01 l -73.52,-53.25 27.89,-84.942 -72.27,53.25 -73.52,-53.25 27.88,84.942 -72.26,53.25 h 90.01 z m -415.82,0 c 8.88,-29.16 19.02,-58.309 27.89,-86.199 30.43,0 59.59,0 90.01,0 -24.08,-17.75 -48.17,-35.5 -73.53,-53.25 10.15,-27.891 19.02,-57.051 29.16,-84.942 -25.35,17.75 -49.44,35.5 -73.53,53.25 -24.09,-17.75 -48.17,-35.5 -72.26,-53.25 8.88,27.891 17.75,57.051 27.89,84.942 -25.35,17.75 -49.44,35.5 -73.53,53.25 30.43,0 59.59,0 90.01,0 8.88,27.89 19.02,57.039 27.89,86.199 z m -415.82,0 c 10.14,-29.16 19.02,-58.309 27.89,-86.199 30.43,0 60.85,0 90.01,0 -24.08,-17.75 -48.17,-35.5 -72.26,-53.25 8.87,-27.891 17.75,-57.051 27.89,-84.942 -24.08,17.75 -48.17,35.5 -73.53,53.25 -24.09,-17.75 -48.17,-35.5 -72.26,-53.25 8.87,27.891 19.01,57.051 27.89,84.942 -24.09,17.75 -49.44,35.5 -73.53,53.25 30.43,0 60.85,0 90.01,0 10.14,27.89 19.01,57.039 27.89,86.199 z m -414.55,0 c 8.87,-29.16 17.74,-58.309 27.89,-86.199 29.16,0 59.58,0 90.01,0 -25.36,-17.75 -49.45,-35.5 -73.53,-53.25 8.87,-27.891 19.02,-57.051 27.89,-84.942 -24.09,17.75 -48.18,35.5 -72.26,53.25 -25.36,-17.75 -49.44,-35.5 -73.53,-53.25 8.87,27.891 19.01,57.051 27.89,84.942 -24.09,17.75 -48.18,35.5 -72.26,53.25 29.15,0 59.58,0 90.01,0 8.87,27.89 17.75,57.039 27.89,86.199 z m -415.83,952.091 27.9,-86.22 h 90.01 l -73.54,-51.97 27.9,-86.21 -72.27,53.25 -73.53,-53.25 29.16,86.21 -73.53,51.97 h 90.02 z m 1662.02,0 27.89,-86.22 h 90.01 l -73.52,-51.97 27.89,-86.21 -72.27,53.25 -73.52,-53.25 27.88,86.21 -72.26,51.97 h 90.01 z m -415.82,0 c 8.88,-29.16 19.02,-57.06 27.89,-86.22 30.43,0 59.59,0 90.01,0 -24.08,-17.74 -48.17,-34.22 -73.53,-51.97 10.15,-29.16 19.02,-57.05 29.16,-86.21 -25.35,17.75 -49.44,35.5 -73.53,53.25 -24.09,-17.75 -48.17,-35.5 -72.26,-53.25 8.88,29.16 17.75,57.05 27.89,86.21 -25.35,17.75 -49.44,34.23 -73.53,51.97 30.43,0 59.59,0 90.01,0 8.88,29.16 19.02,57.06 27.89,86.22 z m -415.82,0 c 10.14,-29.16 19.02,-57.06 27.89,-86.22 30.43,0 60.85,0 90.01,0 -24.08,-17.74 -48.17,-34.22 -72.26,-51.97 8.87,-29.16 17.75,-57.05 27.89,-86.21 -24.08,17.75 -48.17,35.5 -73.53,53.25 -24.09,-17.75 -48.17,-35.5 -72.26,-53.25 8.87,29.16 19.01,57.05 27.89,86.21 -24.09,17.75 -49.44,34.23 -73.53,51.97 30.43,0 60.85,0 90.01,0 10.14,29.16 19.01,57.06 27.89,86.22 z m -414.55,0 c 8.87,-29.16 17.74,-57.06 27.89,-86.22 29.16,0 59.58,0 90.01,0 -25.36,-17.74 -49.45,-34.22 -73.53,-51.97 8.87,-29.16 19.02,-57.05 27.89,-86.21 -24.09,17.75 -48.18,35.5 -72.26,53.25 -25.36,-17.75 -49.44,-35.5 -73.53,-53.25 8.87,29.16 19.01,57.05 27.89,86.21 -24.09,17.75 -48.18,34.23 -72.26,51.97 29.15,0 59.58,0 90.01,0 8.87,29.16 17.75,57.06 27.89,86.22 v 0" style="fill:#fdfbd9;fill-opacity:1;fill-rule:evenodd;stroke:none" transform="matrix(0.13333333,0,0,-0.13333333,0,340.77333)" />
<path id="path7" d="m 2680.94,1400.86 h 641.48 v -49.44 h -641.48 z m 0,-268.76 h 641.48 v -49.45 h -641.48 z m 0,134.38 c 214.25,0 427.23,0 641.48,0 0,-16.48 0,-32.96 0,-49.45 -214.25,0 -427.23,0 -641.48,0 0,16.49 0,32.97 0,49.45 z M 610.711,1400.86 h 640.209 v -49.44 H 610.711 Z m 0,-268.76 h 640.209 v -49.45 H 610.711 Z m 0,134.38 c 212.98,0 427.229,0 640.209,0 0,-16.48 0,-32.96 0,-49.45 -212.98,0 -427.229,0 -640.209,0 0,16.49 0,32.97 0,49.45 v 0" style="fill:#e3ab11;fill-opacity:1;fill-rule:evenodd;stroke:none" transform="matrix(0.13333333,0,0,-0.13333333,0,340.77333)" />
</g>
</g>
</svg>
